<svg xmlns="http://www.w3.org/2000/svg" style="display: none;">

  <symbol id="task" viewBox="0 0 24 24">
    <g>
      <path d="M21.4,3.1c-0.2-0.2-0.6-0.2-0.8,0L11.1,13l-2.3-2.4c-0.2-0.2-0.6-0.2-0.8,0s-0.2,0.6,0,0.8l2.7,2.8 c0.1,0.1,0.3,0.2,0.4,0.2s0.3-0.1,0.4-0.2l9.9-10.4C21.7,3.7,21.7,3.3,21.4,3.1z"/>
      <path d="M19.2,11.4c-0.3,0-0.6,0.3-0.6,0.6v6.6c0,0.7-0.5,1.3-1.2,1.3H4.8c-0.7,0-1.2-0.6-1.2-1.3V5.4 c0-0.7,0.5-1.3,1.2-1.3h9.9c0.3,0,0.6-0.3,0.6-0.6S15,2.9,14.7,2.9H4.8C3.5,2.9,2.4,4,2.4,5.4v13.2c0,1.4,1.1,2.5,2.4,2.5h12.6 c1.3,0,2.4-1.1,2.4-2.5V12C19.8,11.7,19.5,11.4,19.2,11.4z"/>
    </g>
  </symbol>

  <symbol id="star" viewBox="0 0 16 16">
    <path
      d="M4.8,14.5c-0.3,0-0.5-0.1-0.7-0.2c-0.4-0.3-0.6-0.8-0.6-1.3L4,10.1c0-0.1,0-0.2-0.1-0.3l-2-2C1.5,7.4,1.4,6.8,1.6,6.3 c0.2-0.5,0.6-0.8,1.1-0.9L5.4,5c0.1,0,0.2-0.1,0.2-0.2l1.2-2.6C7,1.8,7.5,1.5,8,1.5s1,0.3,1.2,0.8l0,0l1.2,2.6 c0,0.1,0.1,0.2,0.2,0.2l2.7,0.4c0.5,0.1,0.9,0.4,1.1,0.9c0.2,0.5,0,1-0.3,1.4l-2,2C12.1,9.8,12,10,12,10.1l0.5,2.8 c0.1,0.5-0.1,1-0.6,1.3c-0.4,0.3-0.9,0.3-1.4,0.1L8.1,13c-0.1,0-0.2,0-0.3,0l-2.4,1.3C5.2,14.4,5,14.5,4.8,14.5z M8,2.5 c-0.1,0-0.2,0-0.3,0.2L6.5,5.3C6.3,5.7,5.9,6,5.5,6L2.8,6.4c-0.2,0-0.2,0.2-0.3,0.2c0,0.1-0.1,0.2,0.1,0.4l2,2 C4.9,9.4,5,9.8,4.9,10.2l-0.5,2.8c0,0.2,0.1,0.3,0.1,0.4c0.1,0,0.2,0.1,0.3,0l2.4-1.3c0.4-0.2,0.9-0.2,1.2,0l2.4,1.3 c0.1,0.1,0.3,0,0.3,0c0,0,0.2-0.1,0.1-0.4l-0.5-2.8c-0.1-0.4,0.1-0.9,0.4-1.2l2-2c0.1-0.2,0.1-0.3,0.1-0.4c0-0.1-0.1-0.2-0.3-0.2 L10.5,6c-0.4-0.1-0.8-0.3-1-0.7L8.3,2.7C8.2,2.5,8.1,2.5,8,2.5z"
    />
  </symbol>

  <symbol id="project" viewBox="0 0 20 20" fill='none'>
    <path fill-rule="evenodd" clip-rule="evenodd" d="M16.9796 12.6276C16.9796 15.0397 15.4415 16.4615 12.8322 16.4615H7.1569C4.54097 16.4615 3 15.0397 3 12.6276V7.36908C3 4.96028 3.95827 3.53847 6.56837 3.53847H8.02693C8.55055 3.53914 9.04355 3.76634 9.35714 4.15398L10.023 4.97242C10.338 5.35939 10.831 5.58726 11.3546 5.58793H13.4185C16.0344 5.58793 17 6.81896 17 9.28033L16.9796 12.6276Z" stroke="#ffffff" stroke-linecap="round" stroke-linejoin="round"/>
    <path d="M6.51172 11.916H13.2738" stroke="#ffffff" stroke-linecap="round" stroke-linejoin="round"/>
  </symbol>

</svg>
